<svg width="350" height="368" viewBox="0 0 350 368" fill="none" xmlns="http://www.w3.org/2000/svg">
<g clip-path="url(#clip0_1_2)">
<path fill-rule="evenodd" clip-rule="evenodd" d="M185.982 -0.00463867L349.392 60.0701L148.017 139.819L0.00683594 56.7072L185.982 -0.00463867Z" fill="#ECECEC"/>
<path fill-rule="evenodd" clip-rule="evenodd" d="M0.35257 56.943L150.123 140.274L161.924 367.074L22.5093 256.291L0.35257 56.943Z" fill="#B3B3B3"/>
<path fill-rule="evenodd" clip-rule="evenodd" d="M349.471 60.1171L148.017 139.206L161.72 367.027L336.805 268.94L349.471 60.1171Z" fill="#D95623"/>
<path d="M95.1275 174.17C103.192 189.883 115.842 197.791 123.378 191.833C130.924 185.867 130.497 168.294 122.433 152.581C114.368 136.868 101.718 128.96 94.1721 134.926C86.6365 140.884 87.0631 158.456 95.1275 174.17Z" fill="black"/>
<path d="M99.5588 242.794C107.623 258.508 120.274 266.416 127.809 260.458C135.355 254.492 134.928 236.919 126.864 221.206C118.8 205.492 106.149 197.584 98.6034 203.55C91.0678 209.509 91.4945 227.081 99.5588 242.794Z" fill="black"/>
<path d="M103.77 308.208C111.835 323.921 124.485 331.829 132.02 325.871C139.566 319.905 139.14 302.332 131.075 286.619C123.011 270.905 110.361 262.998 102.815 268.964C95.2792 274.922 95.7058 292.494 103.77 308.208Z" fill="black"/>
<path d="M22.168 130.415C29.594 145.311 41.2429 152.808 48.182 147.16C55.1304 141.504 54.7375 124.845 47.3115 109.948C39.8855 95.0518 28.2365 87.5551 21.2881 93.211C14.349 98.8593 14.742 115.518 22.168 130.415Z" fill="black"/>
<path d="M31.3715 194.506C38.159 209.675 48.8063 217.309 55.1487 211.557C61.4997 205.798 61.1406 188.834 54.3531 173.666C47.5656 158.497 36.9183 150.863 30.5673 156.622C24.2249 162.374 24.584 179.338 31.3715 194.506Z" fill="black"/>
<path d="M39.4431 253.168C45.8049 266.158 55.7846 272.695 61.7294 267.77C67.6822 262.838 67.3457 248.311 60.9838 235.321C54.622 222.33 44.6423 215.793 38.6895 220.725C32.7447 225.65 33.0812 240.178 39.4431 253.168Z" fill="black"/>
<path d="M91.6161 68.7812C107.034 66.4651 116.919 58.8135 113.693 51.6948C110.463 44.5664 95.3457 40.6705 79.9276 42.9866C64.5096 45.3027 54.6251 52.9543 57.8552 60.0826C61.0809 67.2014 76.198 71.0972 91.6161 68.7812Z" fill="black"/>
<path d="M184.637 39.3262C199.2 37.2803 208.536 30.5212 205.489 24.2328C202.438 17.9359 188.16 14.4944 173.597 16.5403C159.034 18.5862 149.698 25.3454 152.749 31.6422C155.796 37.9306 170.075 41.3721 184.637 39.3262Z" fill="black"/>
<path d="M268.08 46.6642C284.353 48.8902 294.786 56.2442 291.381 63.0862C287.972 69.9373 272.016 73.6818 255.743 71.4559C239.47 69.2299 229.037 61.8758 232.446 55.0246C235.851 48.1827 251.807 44.4382 268.08 46.6642Z" fill="black"/>
<path d="M176.537 72.5331C194.521 70.3071 206.051 62.953 202.288 56.1111C198.52 49.2599 180.887 45.5154 162.903 47.7414C144.919 49.9674 133.39 57.3214 137.158 64.1726C140.92 71.0146 158.553 74.759 176.537 72.5331Z" fill="black"/>
<path d="M169.803 109.228C188.357 106.822 200.252 98.8733 196.37 91.4778C192.482 84.0723 174.291 80.0248 155.737 82.4309C137.183 84.8369 125.288 92.7859 129.175 100.191C133.057 107.587 151.249 111.634 169.803 109.228Z" fill="black"/>
<path d="M195 166.944C201.023 165.278 207.003 163.452 212.939 161.465C228.203 171.975 244.006 184.159 260.348 198.017C260.88 197.856 261.411 197.696 261.942 197.536C269.965 175.595 277.698 153.623 285.143 131.618C291.087 129.079 297.04 126.539 303 124C293.353 152.405 283.319 181.014 272.898 209.828C274.5 227 277.5 246 281.5 264.5C276.04 267.103 273.179 269.453 267.5 272C264.5 250 260.372 233.299 256.177 215.091C234.812 195.69 214.42 179.641 195 166.944Z" fill="#D8D8D8"/>
</g>
<defs>
<clipPath id="clip0_1_2">
<rect width="349.47" height="367.09" fill="white"/>
</clipPath>
</defs>
</svg>